<?xml version="1.0" encoding="UTF-8"?>
<svg width="128px" height="128px" viewBox="0 0 128 128" version="1.1" xmlns="http://www.w3.org/2000/svg" xmlns:xlink="http://www.w3.org/1999/xlink">
    <title>WP icon</title>
    <g id="WP-icon" stroke="none" stroke-width="1" fill="none" fill-rule="evenodd">
        <rect fill="#EFECE2" x="0" y="0" width="128" height="128"></rect>
        <g id="boven" transform="translate(31.000000, 13.000000)" fill="#E75F44">
            <path d="M49.6388488,9.57694629 C45.3402096,3.23307422 37.9958358,0 19.9488152,0 C-2.97967854,0 0.143118844,1.99695246 0.143118844,25.5573723 L0.143118844,54.5741494 C0.143118844,59.2395151 2.00183262,67.2931002 10.9753239,67.2931002 C19.9488152,67.2931002 21.6095393,60.2082818 21.6095393,54.5741494 C21.6095393,48.940017 21.6095393,20.3260104 21.6095393,15.9208184 C21.6095393,11.5156263 21.6095393,11.5156263 26.1547779,11.5226044 C38.5707692,11.5416659 40.0596784,25.6676659 37.9958358,32.5716918 C37.3501162,34.7317719 35.7146144,37.0986438 34.7821155,36.9094057 C34.7738184,36.9077582 32.6748915,36.9094057 32.6649349,36.9094057 C28.7967974,36.9011684 27.8042013,36.9094057 27.8042013,39.7684193 L27.8506654,48.9533209 C27.9211739,54.1043611 27.9211739,57.2130778 34.4959047,57.2130778 C45.4000891,57.2130778 53.2850777,76.0555801 39.0153282,90.2253789 C32.0644021,97.127618 19.8140332,101.363901 10.4631304,95.6916731 C20.7593139,95.6916731 24.3127025,89.8561149 24.3127025,83.9501786 C24.3127025,78.0442423 19.4024939,72.2367432 12.2138318,72.2367432 C4.27012779,72.2367432 0.552998703,78.6486311 0.552998703,84.24837 C0.552998703,92.1364401 9.10107798,102.713733 29.9614637,102.994893 C56.935633,103.358455 67,84.24837 67,66.223438 C67,51.5659276 56.3680152,42.6070042 46.6719503,40.1077974 C56.935633,29.2768969 53.9374879,15.9208184 49.6388488,9.57694629 Z" id="Combined-Shape"></path>
        </g>
    </g>
</svg>