<?xml version="1.0" encoding="UTF-8"?>
<svg width="400px" height="106px" viewBox="0 0 400 106" version="1.1" xmlns="http://www.w3.org/2000/svg" xmlns:xlink="http://www.w3.org/1999/xlink">
    <title>logo</title>
    <g id="logo" stroke="none" stroke-width="1" fill="none" fill-rule="evenodd">
        <g id="voorstel-2" transform="translate(-520.000000, -203.000000)">
            <g id="boven">
                <g id="logo" transform="translate(520.000000, 203.000000)">
                    <path d="M104.175147,46.5872488 L102.281926,46.5872488 C101.575147,46.5872488 101.00396,46.0160624 101.00396,45.3092827 L101.00396,39.2499607 C101.00396,38.5448759 101.575147,37.9719946 102.281926,37.9719946 L112.631079,37.9719946 C120.485316,37.9719946 126.851418,44.3380963 126.851418,52.1923336 L126.851418,66.3279268 C126.851418,67.0330115 127.422604,67.6058929 128.129384,67.6058929 L130.305655,67.6058929 C131.012435,67.6058929 131.583621,68.1787742 131.583621,68.883859 L131.583621,74.943181 C131.583621,75.6482658 131.012435,76.2211471 130.305655,76.2211471 L110.11074,76.2211471 C109.539553,76.2211471 109.037858,75.843181 108.881926,75.2940285 C108.046333,72.3499607 104.459892,71.2940285 102.122604,73.2669098 C98.9853161,75.9177573 94.9107398,77.1686048 90.1158245,77.1686048 C80.3632822,77.1686048 73.925994,70.9194522 73.925994,59.0855539 L73.925994,47.8669098 C73.925994,47.1601302 73.3531127,46.5872488 72.646333,46.5872488 L70.5649771,46.5872488 C69.8581974,46.5872488 69.287011,46.0160624 69.287011,45.3092827 L69.287011,39.2499607 C69.287011,38.5448759 69.8581974,37.9719946 70.5649771,37.9719946 L81.1039601,37.9719946 C88.9565025,37.9719946 95.3226042,44.3380963 95.3226042,52.1923336 L95.3226042,58.9906387 C95.3226042,62.9669098 97.1209093,64.6719946 99.6785364,64.6719946 C102.517519,64.6719946 104.60057,63.3465709 105.453113,57.6652149 L105.453113,47.8669098 C105.453113,47.1601302 104.881926,46.5872488 104.175147,46.5872488" id="Fill-2" fill="#314760"></path>
                    <path d="M139.395994,67.6065709 C140.101079,67.6065709 140.67396,67.0336895 140.67396,66.3286048 L140.67396,22.2133505 C140.67396,20.3116556 138.724808,19.0353844 136.982435,19.7947064 C135.240062,20.5540285 133.289214,19.2760624 133.289214,17.3760624 C133.289214,13.2201302 136.657011,9.85233357 140.812943,9.85233357 L147.946841,9.85233357 C155.799384,9.85233357 162.16718,16.2201302 162.16718,24.0709776 L162.16718,66.3286048 C162.16718,67.0336895 162.738367,67.6065709 163.445147,67.6065709 L165.243452,67.6065709 C165.948536,67.6065709 166.521418,68.1794522 166.521418,68.884537 L166.521418,74.943859 C166.521418,75.6489437 165.948536,76.2218251 165.243452,76.2218251 L137.502774,76.2218251 C136.795994,76.2218251 136.224808,75.6489437 136.224808,74.943859 L136.224808,68.884537 C136.224808,68.1794522 136.795994,67.6065709 137.502774,67.6065709 L139.395994,67.6065709 Z" id="Fill-4" fill="#314760"></path>
                    <path d="M173.575316,67.6065709 L175.468536,67.6065709 C176.173621,67.6065709 176.746503,67.0336895 176.746503,66.3286048 L176.746503,22.2133505 C176.746503,20.3116556 174.79735,19.0353844 173.054977,19.7947064 C171.312604,20.5540285 169.361757,19.2760624 169.361757,17.3760624 C169.361757,13.2201302 172.729553,9.85233357 176.885486,9.85233357 L184.019384,9.85233357 C191.871926,9.85233357 198.239723,16.2201302 198.239723,24.0709776 L198.239723,66.3286048 C198.239723,67.0336895 198.810909,67.6065709 199.517689,67.6065709 L201.315994,67.6065709 C202.021079,67.6065709 202.59396,68.1794522 202.59396,68.884537 L202.59396,74.943859 C202.59396,75.6489437 202.021079,76.2218251 201.315994,76.2218251 L173.575316,76.2218251 C172.868536,76.2218251 172.29735,75.6489437 172.29735,74.943859 L172.29735,68.884537 C172.29735,68.1794522 172.868536,67.6065709 173.575316,67.6065709" id="Fill-6" fill="#314760"></path>
                    <path d="M238.279892,50.5647064 C237.237519,48.7647064 235.439214,47.7240285 233.073113,47.7240285 C228.907011,47.7240285 226.351079,50.752842 226.351079,55.8664014 L226.351079,55.9019946 C226.354469,57.4494522 228.154469,58.3070793 229.383282,57.3680963 L238.279892,50.5647064 Z M256.12735,38.8986048 L259.476503,45.0511471 C259.801926,45.6494522 259.603621,46.39352 259.025655,46.7511471 L231.084977,64.0087742 C232.505316,64.8613166 234.113791,65.334198 236.101926,65.334198 C240.92396,65.334198 245.107011,62.8426725 248.493452,58.9087742 C249.737519,57.4647064 251.939214,57.3477573 253.364638,58.6121641 L257.298536,62.1002997 C258.729045,63.3697912 258.856164,65.5664014 257.571418,66.9833505 C252.179892,72.9325031 244.349384,77.2630115 232.693452,77.2630115 C216.125655,77.2630115 205.615486,69.5952149 205.615486,57.1918251 C205.615486,45.2613166 215.462943,37.0257234 230.32735,37.0257234 C237.432435,37.0257234 242.869723,39.5240285 246.72057,42.8816556 C247.173113,43.2748759 247.832435,43.3036895 248.313791,42.9477573 C249.740909,41.8918251 252.613791,39.7189437 254.23413,38.4901302 C254.857858,38.0189437 255.752774,38.2121641 256.12735,38.8986048 L256.12735,38.8986048 Z" id="Fill-8" fill="#314760"></path>
                    <path d="M296.601757,39.2497912 L296.601757,45.3091132 C296.601757,46.0158929 296.028875,46.5870793 295.323791,46.5870793 L289.92718,46.5870793 C289.222096,46.5870793 288.649214,47.1599607 288.649214,47.8667403 L288.649214,62.2108081 C288.649214,65.9023336 290.352604,67.4175878 293.003452,67.4175878 L293.052604,67.4175878 C295.001757,67.4074183 296.601757,68.9480963 296.601757,70.8989437 L296.601757,71.9514861 C296.601757,73.3480963 295.783113,74.6243675 294.500062,75.1786048 C292.510231,76.0396217 289.083113,77.07352 284.103452,77.07352 C273.217011,77.07352 267.820401,72.1514861 267.820401,60.3158929 L267.820401,47.8667403 C267.820401,47.1599607 267.247519,46.5870793 266.54074,46.5870793 L262.659384,46.5870793 C261.954299,46.5870793 261.381418,46.0158929 261.381418,45.3091132 L261.381418,39.2497912 C261.381418,38.5447064 261.954299,37.9718251 262.659384,37.9718251 L266.54074,37.9718251 C267.247519,37.9718251 267.820401,37.3989437 267.820401,36.693859 L267.820401,28.3718251 C267.820401,26.8040285 268.942435,25.4616556 270.484808,25.1836895 L285.025486,22.5633505 C287.011926,22.2057234 288.83735,23.732842 288.83735,25.7514861 L288.83735,36.693859 C288.83735,37.3989437 289.410231,37.9718251 290.117011,37.9718251 L295.323791,37.9718251 C296.028875,37.9718251 296.601757,38.5447064 296.601757,39.2497912" id="Fill-10" fill="#314760"></path>
                    <path d="M316.200062,11.7455539 C323.017011,11.7455539 327.845825,16.4811471 327.845825,23.203181 C327.845825,29.9252149 323.017011,34.6591132 316.200062,34.6591132 C309.288197,34.6591132 304.459384,29.9252149 304.459384,23.203181 C304.459384,16.4811471 309.288197,11.7455539 316.200062,11.7455539 M332.484808,68.884537 L332.484808,74.943859 C332.484808,75.6489437 331.911926,76.2218251 331.206841,76.2218251 L302.898367,76.2218251 C302.191587,76.2218251 301.618706,75.6489437 301.618706,74.943859 L301.618706,68.884537 C301.618706,68.1794522 302.191587,67.6065709 302.898367,67.6065709 L305.076333,67.6065709 C305.781418,67.6065709 306.354299,67.0336895 306.354299,66.3286048 L306.354299,47.8675878 C306.354299,47.1608081 305.781418,46.5879268 305.076333,46.5879268 L302.898367,46.5879268 C302.191587,46.5879268 301.618706,46.0167403 301.618706,45.3099607 L301.618706,39.2506387 C301.618706,38.5455539 302.191587,37.9726725 302.898367,37.9726725 L313.43735,37.9726725 C321.289892,37.9726725 327.655994,44.3370793 327.655994,52.1913166 L327.655994,66.3286048 C327.655994,67.0336895 328.228875,67.6065709 328.93396,67.6065709 L331.206841,67.6065709 C331.911926,67.6065709 332.484808,68.1794522 332.484808,68.884537" id="Fill-12" fill="#314760"></path>
                    <path d="M378.68735,37.0252149 C388.534808,37.0252149 394.87718,43.2743675 394.87718,55.1082658 L394.87718,66.3286048 C394.87718,67.0336895 395.450062,67.6065709 396.155147,67.6065709 L398.333113,67.6065709 C399.039892,67.6065709 399.611079,68.1794522 399.611079,68.884537 L399.611079,74.943859 C399.611079,75.6489437 399.039892,76.2218251 398.333113,76.2218251 L372.012774,76.2218251 C371.307689,76.2218251 370.734808,75.6489437 370.734808,74.943859 L370.734808,68.884537 C370.734808,68.1794522 371.307689,67.6065709 372.012774,67.6065709 L372.202604,67.6065709 C372.907689,67.6065709 373.48057,67.0336895 373.48057,66.3286048 L373.48057,55.2048759 C373.48057,51.2269098 371.68057,49.52352 369.124638,49.52352 C366.285655,49.52352 364.295825,50.8472488 363.444977,56.5286048 L363.444977,66.3286048 C363.444977,67.0336895 364.016164,67.6065709 364.722943,67.6065709 C365.428028,67.6065709 366.000909,68.1794522 366.000909,68.884537 L366.000909,74.943859 C366.000909,75.6489437 365.428028,76.2218251 364.722943,76.2218251 L338.497519,76.2218251 C337.79074,76.2218251 337.217858,75.6489437 337.217858,74.943859 L337.217858,68.884537 C337.217858,68.1794522 337.79074,67.6065709 338.497519,67.6065709 L340.768706,67.6065709 C341.475486,67.6065709 342.046672,67.0336895 342.046672,66.3286048 L342.046672,47.8658929 C342.046672,47.1591132 341.475486,46.5879268 340.768706,46.5879268 L338.497519,46.5879268 C337.79074,46.5879268 337.217858,46.0167403 337.217858,45.3099607 L337.217858,39.2489437 C337.217858,38.543859 337.79074,37.9726725 338.497519,37.9726725 L347.917858,37.9726725 C354.343282,37.9726725 359.970401,42.2811471 361.644977,48.482842 C364.58057,40.62352 370.639892,37.0252149 378.68735,37.0252149" id="Fill-14" fill="#314760"></path>
                    <path d="M51.0287048,9.85233357 C46.6381505,3.32575177 39.1367364,-0.000438160772 20.7038275,-0.000438160772 C-2.71493213,-0.000438160772 0.47463811,2.05402849 0.47463811,26.2930115 L0.47463811,56.1455002 C0.47463811,60.945233 2.37309561,69.2307692 11.5384615,69.2307692 C20.7038275,69.2307692 22.4000618,61.9419012 22.4000618,56.1455002 C22.4000618,50.3490993 22.4000618,20.9109813 22.4000618,16.3789154 C22.4000618,11.8468495 22.4000618,11.8468495 27.0424884,11.8540285 C39.7239632,11.873639 41.2447088,26.4064817 39.1367364,33.5093503 C38.4772097,35.7316428 36.806737,38.1666829 35.8542991,37.9719946 C35.8458246,37.9702997 33.7020176,37.9719946 33.6918481,37.9719946 C29.7410007,37.96352 28.7271805,37.9719946 28.7271805,40.9133505 L28.7746381,50.3627863 C28.8466543,55.6621815 28.8466543,58.8604324 35.5619684,58.8604324 C46.6993102,58.8604324 54.7528988,78.2456172 40.1780279,92.82352 C33.0784745,99.9245504 20.5661635,104.282842 11.0153161,98.4472488 C21.5316565,98.4472488 25.1610251,92.4436209 25.1610251,86.3675878 C25.1610251,80.2915547 20.1458246,74.316794 12.8034517,74.316794 C4.68989235,74.316794 0.893282178,80.9133505 0.893282178,86.6743675 C0.893282178,94.7896217 9.62413977,105.671551 30.9305703,105.960808 C58.4815116,106.334842 68.7610788,86.6743675 68.7610788,68.1302997 C68.7610788,53.0506387 57.9017568,43.8336895 47.9983669,41.2625031 C58.4815116,30.119662 55.419259,16.3789154 51.0287048,9.85233357 Z" id="Combined-Shape" fill="#E75F44"></path>
                </g>
            </g>
        </g>
    </g>
</svg>